<svg width="25" height="24" viewBox="0 0 25 24" fill="none" xmlns="http://www.w3.org/2000/svg">
<path d="M11.4487 16.7303C11.3174 16.7305 11.1874 16.7049 11.0661 16.6548C10.9448 16.6047 10.8345 16.5311 10.7417 16.4383L6.4997 12.1953C6.40412 12.1031 6.32786 11.9928 6.27537 11.8708C6.22288 11.7489 6.1952 11.6177 6.19395 11.4849C6.19271 11.3521 6.21792 11.2204 6.26811 11.0975C6.3183 10.9745 6.39248 10.8628 6.4863 10.7689C6.58013 10.6749 6.69173 10.6006 6.81458 10.5502C6.93744 10.4999 7.0691 10.4745 7.20188 10.4755C7.33466 10.4766 7.4659 10.5041 7.58794 10.5564C7.70998 10.6087 7.82038 10.6848 7.9127 10.7803L11.4477 14.3153L17.8127 7.95226C18.0002 7.76462 18.2546 7.65915 18.5198 7.65906C18.7851 7.65896 19.0396 7.76425 19.2272 7.95176C19.4148 8.13927 19.5203 8.39364 19.5204 8.65891C19.5205 8.92418 19.4152 9.17862 19.2277 9.36626L12.1557 16.4383C12.0629 16.5311 11.9526 16.6047 11.8313 16.6548C11.71 16.7049 11.58 16.7305 11.4487 16.7303Z" fill="#2FAB73"/>
</svg>
